<svg xmlns="http://www.w3.org/2000/svg" xmlns:xlink="http://www.w3.org/1999/xlink" viewBox="0,0,256,256" width="48px" height="48px"><g fill="none" fill-rule="nonzero" stroke="none" stroke-width="1" stroke-linecap="butt" stroke-linejoin="miter" stroke-miterlimit="10" stroke-dasharray="" stroke-dashoffset="0" font-family="none" font-weight="none" font-size="none" text-anchor="none" style="mix-blend-mode: normal"><g transform="scale(5.33333,5.33333)"><path d="M24,4c-11.04569,0 -20,8.95431 -20,20c0,11.04569 8.95431,20 20,20c11.04569,0 20,-8.95431 20,-20c0,-11.04569 -8.95431,-20 -20,-20z" fill="#03a9f4"></path><path d="M14,19h4v15h-4zM15.988,17h-0.022c-1.194,0 -1.966,-0.89 -1.966,-2.001c0,-1.135 0.796,-1.999 2.011,-1.999c1.217,0 1.966,0.864 1.989,1.999c0,1.111 -0.772,2.001 -2.012,2.001zM35,24.5c0,-3.038 -2.462,-5.5 -5.5,-5.5c-1.862,0 -3.505,0.928 -4.5,2.344v-2.344h-4v15h4v-8c0,-1.657 1.343,-3 3,-3c1.657,0 3,1.343 3,3v8h4c0,0 0,-9.079 0,-9.5z" fill="#ffffff"></path></g></g></svg>